<?xml version="1.0" standalone="no"?><!DOCTYPE svg PUBLIC "-//W3C//DTD SVG 1.1//EN" "http://www.w3.org/Graphics/SVG/1.1/DTD/svg11.dtd"><svg t="1598513115960" class="icon" viewBox="0 0 1024 1024" version="1.1" xmlns="http://www.w3.org/2000/svg" p-id="1684" xmlns:xlink="http://www.w3.org/1999/xlink" width="32" height="32"><defs><style type="text/css"></style></defs><path d="M775.552 538.368l20.16 60.416c9.344 2.88 18.112 6.784 26.624 11.328l57.28-28.608 37.248 37.248-28.16 56.384c4.672 8.768 8.32 18.048 11.264 27.712l60.032 19.968v52.736l-60.032 19.968a154.88 154.88 0 0 1-11.328 27.648l28.224 56.448-37.248 37.248-57.28-28.608a168.96 168.96 0 0 1-26.624 11.328l-20.16 60.416h-52.736l-20.16-60.416a152.512 152.512 0 0 1-26.688-11.328l-57.216 28.608-37.248-37.248 28.16-56.448a151.744 151.744 0 0 1-11.328-27.648l-59.968-19.968v-52.736l59.968-19.968a154.88 154.88 0 0 1 11.328-27.712l-28.16-56.384 37.248-37.248 57.216 28.608a160.64 160.64 0 0 1 26.688-11.328l20.16-60.416h52.736z m-26.368 131.776a79.104 79.104 0 1 0-6.4 158.08 79.104 79.104 0 0 0 6.4-158.08zM696.448 64c58.24 0 105.408 47.168 105.408 105.408v316.224h-79.04L590.976 415.36 459.264 485.632v158.08l79.104 26.432-52.736 14.72v116.992h-316.16A105.28 105.28 0 0 1 64 696.448V169.408C64 111.168 111.168 64 169.408 64h527.04z m-421.76 351.36L143.104 485.632v158.08l131.84 52.736 131.712-52.672v-158.08l-131.84-70.4-0.128 0.064z m158.144-245.952l-105.28 56.192V362.24l105.408 53.12 105.408-53.12V225.6l-105.536-56.192z" fill="#BFCBD9" p-id="1685"></path></svg>