<?xml version="1.0" standalone="no"?><!DOCTYPE svg PUBLIC "-//W3C//DTD SVG 1.1//EN" "http://www.w3.org/Graphics/SVG/1.1/DTD/svg11.dtd"><svg t="1598513221844" class="icon" viewBox="0 0 1024 1024" version="1.1" xmlns="http://www.w3.org/2000/svg" p-id="1936" xmlns:xlink="http://www.w3.org/1999/xlink" width="32" height="32"><defs><style type="text/css"></style></defs><path d="M911.36 76.288H112.64a36.352 36.352 0 0 0-36.352 36.288v798.848c0 19.968 16.32 36.288 36.288 36.288h798.848a36.352 36.352 0 0 0 36.288-36.288V112.576a36.352 36.352 0 0 0-36.288-36.288h-0.064z m-193.6 191.68h75.456v413.824h-75.456V267.968zM532.672 474.88h75.456v206.912h-75.52V474.88h0.064zM347.52 405.952h75.52v275.84H347.52v-275.84z m493.056 432.64H249.408a64 64 0 0 1-64-64V183.36a34.496 34.496 0 0 1 68.928 0v586.24h586.24a34.496 34.496 0 1 1 0 68.992z" fill="#BFCBD9" p-id="1937"></path></svg>