<?xml version="1.0" standalone="no"?><!DOCTYPE svg PUBLIC "-//W3C//DTD SVG 1.1//EN" "http://www.w3.org/Graphics/SVG/1.1/DTD/svg11.dtd"><svg t="1598513309659" class="icon" viewBox="0 0 1024 1024" version="1.1" xmlns="http://www.w3.org/2000/svg" p-id="2188" xmlns:xlink="http://www.w3.org/1999/xlink" width="32" height="32"><defs><style type="text/css"></style></defs><path d="M512 56.922353c9.938824 0 19.757176 2.168471 28.732235 6.204235l6.625883 3.433412 326.294588 189.259294c22.106353 12.769882 36.803765 36.743529 39.514353 63.548235l0.481882 9.035295v367.073882c0 27.407059-12.468706 52.766118-32.88847 67.945412l-7.107765 4.698353-326.294588 189.319529a69.812706 69.812706 0 0 1-63.909647 3.433412l-6.746353-3.433412-326.354824-189.199059a82.642824 82.642824 0 0 1-39.514353-63.60847l-0.481882-9.035295V328.523294c0-27.407059 12.468706-52.766118 32.88847-67.945412l7.107765-4.698353 326.354824-189.319529A70.475294 70.475294 0 0 1 512 56.922353zM417.731765 416.707765a139.143529 139.143529 0 0 0-31.141647 23.130353L313.344 513.084235c-53.248 53.248-57.223529 139.565176-6.023529 193.776941a137.396706 137.396706 0 0 0 198.77647 4.035765l25.057883-25.118117c7.047529-4.999529 2.048-17.046588-6.987295-18.070589l-21.082353-3.011764s-14.095059-3.011765-21.082352-6.02353a13.191529 13.191529 0 0 0-12.047059 3.011765l-5.059765 4.999529c-29.093647 29.153882-76.257882 32.165647-106.375529 6.02353a76.860235 76.860235 0 0 1-4.035765-112.399059l76.318118-76.318118c9.999059-10.059294 22.046118-16.082824 34.093176-20.058353 16.082824-4.035765 33.129412-3.011765 48.188235 3.011765 9.035294 3.975529 18.070588 9.035294 26.142118 17.046588 3.975529 4.035765 6.987294 8.011294 9.999059 13.071059 4.035765 6.987294 13.071059 8.011294 18.070588 1.987765l28.129882-28.129883c4.035765-3.975529 4.035765-9.999059 1.024-15.058823-4.035765-6.023529-9.035294-11.023059-14.095058-16.022588a112.158118 112.158118 0 0 0-24.094118-19.094589c-14.034824-9.035294-30.117647-15.058824-47.164235-18.070588a143.540706 143.540706 0 0 0-93.364706 14.034824z m97.40047-103.363765l-23.130353 22.046118c-6.987294 7.047529-1.987765 19.094588 7.04753 20.118588 14.034824 0.963765 28.129882 3.975529 42.164706 8.011294 4.035765 1.024 9.035294 0 12.047058-3.011765l4.99953-4.999529c29.153882-29.153882 76.318118-32.165647 106.435765-6.02353 34.153412 29.093647 35.117176 81.317647 4.035764 112.399059L592.414118 538.202353a85.293176 85.293176 0 0 1-34.153412 20.058353 78.908235 78.908235 0 0 1-48.188235-3.011765c-9.035294-3.975529-18.070588-9.035294-26.081883-17.046588a64.451765 64.451765 0 0 1-10.059294-13.071059c-3.975529-6.987294-13.010824-8.011294-18.070588-1.987765l-28.069647 28.129883c-4.035765 3.975529-4.035765 9.999059-1.024 15.058823 4.035765 6.023529 9.035294 11.023059 14.034823 16.022589 7.047529 7.047529 16.082824 14.095059 24.094118 19.094588 14.095059 9.035294 30.117647 15.058824 46.200471 18.070588 31.141647 6.023529 65.234824 1.024 93.364705-14.034824 11.023059-6.023529 22.106353-14.095059 31.141648-23.130352l76.257882-76.257883a137.336471 137.336471 0 0 0-3.011765-198.77647c-55.175529-51.2-141.552941-47.224471-193.716706 6.023529z" fill="#BFCBD9" p-id="2189"></path></svg>