<?xml version="1.0" standalone="no"?><!DOCTYPE svg PUBLIC "-//W3C//DTD SVG 1.1//EN" "http://www.w3.org/Graphics/SVG/1.1/DTD/svg11.dtd"><svg t="1598513270155" class="icon" viewBox="0 0 1024 1024" version="1.1" xmlns="http://www.w3.org/2000/svg" p-id="2062" xmlns:xlink="http://www.w3.org/1999/xlink" width="32" height="32"><defs><style type="text/css"></style></defs><path d="M637.76768 17.024a510.592 510.592 0 0 1 226.496 125.312 28.16 28.16 0 0 1 0.96 39.872 101.888 101.888 0 0 0 102.464 168.192 28.16 28.16 0 0 1 35.008 19.2c13.44 46.08 20.288 94.208 20.288 143.168 0 42.624-5.12 84.48-15.36 125.056a28.16 28.16 0 0 1-36.288 19.84 101.888 101.888 0 0 0-98.56 174.144 28.16 28.16 0 0 1 1.728 41.408 511.04 511.04 0 0 1-226.56 132.672 28.16 28.16 0 0 1-35.392-23.488 101.952 101.952 0 0 0-202.048 0 28.16 28.16 0 0 1-35.456 23.488 511.04 511.04 0 0 1-226.56-132.672 28.16 28.16 0 0 1 1.728-41.344 101.888 101.888 0 0 0-98.56-174.144 28.16 28.16 0 0 1-36.224-19.84A512.512 512.512 0 0 1 0.00768 512.704c0-48.96 6.848-97.024 20.288-143.232a28.16 28.16 0 0 1 34.944-19.2 101.952 101.952 0 0 0 102.528-168.128 28.16 28.16 0 0 1 0.96-39.808A510.592 510.592 0 0 1 385.22368 16.96a28.16 28.16 0 0 1 32.832 16 101.888 101.888 0 0 0 186.88 0 28.16 28.16 0 0 1 32.832-16zM511.49568 317.248a176.896 176.896 0 1 0 0 353.856 176.896 176.896 0 0 0 0-353.856z" fill="#BFCBD9" p-id="2063"></path></svg>